<?xml version="1.0" encoding="UTF-8"?>
<svg width="80px" height="80px" viewBox="0 0 80 80" version="1.1" xmlns="http://www.w3.org/2000/svg" xmlns:xlink="http://www.w3.org/1999/xlink">
    <!-- Generator: sketchtool 55.2 (78181) - https://sketchapp.com -->
    <title>3F704606-1C4E-4A93-84D4-BF9B7D05E77A</title>
    <desc>Created with sketchtool.</desc>
    <defs>
        <rect id="path-2" x="0" y="0" width="80" height="80"></rect>
        <filter x="-9.4%" y="-9.4%" width="118.8%" height="118.8%" filterUnits="objectBoundingBox" id="filter-3">
            <feOffset dx="0" dy="0" in="SourceAlpha" result="shadowOffsetOuter1"></feOffset>
            <feGaussianBlur stdDeviation="2.5" in="shadowOffsetOuter1" result="shadowBlurOuter1"></feGaussianBlur>
            <feColorMatrix values="0 0 0 0 0   0 0 0 0 0   0 0 0 0 0  0 0 0 0.4 0" type="matrix" in="shadowBlurOuter1"></feColorMatrix>
        </filter>
    </defs>
    <g id="Icons" stroke="none" stroke-width="1" fill="none" fill-rule="evenodd">
        <g id="icons/msg/Info">
            <g id="icon-status" transform="translate(23.000000, 18.000000)" fill="#358CD4">
                <g id="normal">
                    <path d="M2.125,42.8571429 L31.875,42.8571429 L31.875,10.7142857 L23.97425,10.7142857 C23.38775,10.7142857 23.375,10.4367857 23.375,9.84428571 L23.375,2.14285714 L2.125,2.14285714 L2.125,42.8571429 Z M25.5,3.68678571 L25.5,8.57142857 L30.1654375,8.57142857 L25.5,3.68678571 Z M33.8289375,9.42964286 C33.883125,9.55928571 34,9.70071429 34,9.84428571 L34,43.8610714 C34,44.4535714 33.347625,45 32.7600625,45 L1.039125,45 C0.452625,45 0,44.4535714 0,43.8610714 L0,1.13142857 C0,0.538928571 0.452625,0 1.039125,0 L23.97425,0 C24.1145,0 24.2536875,0.0589285714 24.3811875,0.1125 C24.465125,0.148928571 24.53525,0.236785714 24.6064375,0.290357143 C24.643625,0.319285714 24.68825,0.334285714 24.72225,0.3675 L24.73075,0.372857143 C24.73075,0.373928571 24.7360625,0.373928571 24.737125,0.373928571 L33.52825,9.08142857 C33.5293125,9.0825 33.5505625,9.08357143 33.551625,9.08464286 C33.649375,9.18214286 33.7736875,9.29892857 33.8289375,9.42964286 Z M25.4436445,22 C25.7507527,22 26,22.448 26,23 C26,23.552 25.7507527,24 25.4436445,24 L9.55635554,24 C9.24924728,24 9,23.552 9,23 C9,22.448 9.24924728,22 9.55635554,22 L25.4436445,22 Z M10.5,17 C10.224,17 10,16.552 10,16 C10,15.448 10.224,15 10.5,15 L24.5,15 C24.776,15 25,15.448 25,16 C25,16.552 24.776,17 24.5,17 L10.5,17 Z M24.5,29 C24.776,29 25,29.448 25,30 C25,30.552 24.776,31 24.5,31 L10.5,31 C10.224,31 10,30.552 10,30 C10,29.448 10.224,29 10.5,29 L24.5,29 Z" id="Combined-Shape"></path>
                </g>
            </g>
        </g>
    </g>
</svg>