<?xml version="1.0" encoding="UTF-8"?>
<svg width="80px" height="80px" viewBox="0 0 80 80" version="1.1" xmlns="http://www.w3.org/2000/svg" xmlns:xlink="http://www.w3.org/1999/xlink">
    <!-- Generator: sketchtool 55.2 (78181) - https://sketchapp.com -->
    <title>E22888C4-6C09-4BFB-8E3F-6EDCE18643E1</title>
    <desc>Created with sketchtool.</desc>
    <defs>
        <rect id="path-2" x="0" y="0" width="80" height="80"></rect>
        <filter x="-9.4%" y="-9.4%" width="118.8%" height="118.8%" filterUnits="objectBoundingBox" id="filter-3">
            <feOffset dx="0" dy="0" in="SourceAlpha" result="shadowOffsetOuter1"></feOffset>
            <feGaussianBlur stdDeviation="2.5" in="shadowOffsetOuter1" result="shadowBlurOuter1"></feGaussianBlur>
            <feColorMatrix values="0 0 0 0 0   0 0 0 0 0   0 0 0 0 0  0 0 0 0.4 0" type="matrix" in="shadowBlurOuter1"></feColorMatrix>
        </filter>
    </defs>
    <g id="Icons" stroke="none" stroke-width="1" fill="none" fill-rule="evenodd">
        <g id="icons/msg/verbose">
            <g id="icon-status" transform="translate(20.000000, 22.000000)" fill="#358CD4">
                <g id="normal">
                    <path d="M31.238949,11.5048164 L11.761051,11.5048164 C11.2029509,11.5048164 10.75,11.1615842 10.75,10.7369592 C10.75,10.3123342 11.2029509,9.96910208 11.761051,9.96910208 L31.238949,9.96910208 C31.7970491,9.96910208 32.25,10.3123342 32.25,10.7369592 C32.25,11.1615842 31.7970491,11.5048164 31.238949,11.5048164 Z M31.238949,18.6476735 L11.761051,18.6476735 C11.2029509,18.6476735 10.75,18.3044414 10.75,17.8798164 C10.75,17.4551914 11.2029509,17.1119592 11.761051,17.1119592 L31.238949,17.1119592 C31.7970491,17.1119592 32.25,17.4551914 32.25,17.8798164 C32.25,18.3044414 31.7970491,18.6476735 31.238949,18.6476735 Z M31.238949,25.3262449 L11.761051,25.3262449 C11.2029509,25.3262449 10.75,24.9830128 10.75,24.5583878 C10.75,24.1337628 11.2029509,23.7905307 11.761051,23.7905307 L31.238949,23.7905307 C31.7970491,23.7905307 32.25,24.1337628 32.25,24.5583878 C32.25,24.9830128 31.7970491,25.3262449 31.238949,25.3262449 Z M21.04,1.96230159 C10.541,1.96230159 2,8.51835119 2,16.5775238 C2,19.5445238 3.177,22.4114464 5.403,24.868248 L6.251,25.8003413 C6.498,26.07212 6.572,26.4567312 6.441,26.7971905 L5.974,28.023629 C5.455,29.3785982 4.974,30.8719097 4.642,32.1336696 C6.453,31.5606776 8.9,30.7051141 11.198,29.832871 L11.755,29.6229048 C11.979,29.5385258 12.228,29.5355823 12.455,29.617999 L13.011,29.8161915 C15.543,30.730624 18.243,31.1937272 21.04,31.1937272 C31.54,31.1937272 40.082,24.6366964 40.082,16.5775238 C40.082,8.51835119 31.54,1.96230159 21.04,1.96230159 Z M3.296,34.5404325 C3.051,34.5404325 2.811,34.452129 2.624,34.2863145 C2.371,34.061631 2.252,33.7241151 2.311,33.3924861 C2.582,31.8442302 3.285,29.4659206 4.101,27.33388 L4.356,26.6647351 L3.91,26.1731786 C1.352,23.3504077 4.26325641e-14,20.0321558 4.26325641e-14,16.5775238 C4.26325641e-14,7.43614187 9.438,1.42108547e-14 21.04,1.42108547e-14 C32.643,1.42108547e-14 42.082,7.43614187 42.082,16.5775238 C42.082,25.7189058 32.643,33.1560288 21.04,33.1560288 C18.006,33.1560288 15.074,32.6517173 12.324,31.6587927 L12.123,31.5861875 L11.917,31.6636984 C8.726,32.8744385 5.368,34.016498 3.561,34.5051111 C3.474,34.5286587 3.385,34.5404325 3.296,34.5404325 Z" id="Combined-Shape"></path>
                </g>
            </g>
        </g>
    </g>
</svg>